# xmcd
#
# Track frame offsets: 
#        150
#        15721
#        32769
#        53454
#        73854
#        91172
#        109285
#        122866
#        137315
#        150943
#        166101
#        180831
#        196599
#        210324
#        222149
#        245245
#        262711
#        277494
#
# Disc length: 3933 seconds
#
# Revision: 0
# Processed by: cddbd v1.5.2PL0 Copyright (c) Steve Scherf et al.
# Submitted via: ExactAudioCopyFreeDBPlugin 1.0
#
DISCID=eb0f5b12
DTITLE=Various Artist - New Country - Country Heat: Long Weekend
DYEAR=2016
DGENRE=New Country
TTITLE0=Old Dominion - Snapback
TTITLE1=Jerrod Niemann - Drink To That All Night
TTITLE2=Brad Paisley - American Saturday Night
TTITLE3=Kenny Chesney - Beer In Mexico
TTITLE4=Brett Eldredge - Mean To Me
TTITLE5=Blake Shelton - Mine Would Be You
TTITLE6=Chris Janson - Buy Me A Boat
TTITLE7=Jake Owen - Beachin'
TTITLE8=Michael Ray - Kiss You In The Morning
TTITLE9=Brett Kissel - Pick Me Up
TTITLE10=Tebey - Jealous Of The Sun
TTITLE11=Aaron Goodvin - Knock On Wood
TTITLE12=Gord Bamford - Is It Friday Yet
TTITLE13=Brooks and Dunn - Beer Thirty
TTITLE14=Alan Jackson - Good Time
TTITLE15=Brandy Clark - Girl Next Door
TTITLE16=The Washboard Union - Some Day
TTITLE17=Frankie Ballard - Don't You Wanna Fall
EXTD=
EXTT0=
EXTT1=
EXTT2=
EXTT3=
EXTT4=
EXTT5=
EXTT6=
EXTT7=
EXTT8=
EXTT9=
EXTT10=
EXTT11=
EXTT12=
EXTT13=
EXTT14=
EXTT15=
EXTT16=
EXTT17=
PLAYORDER=
